<svg width="63" height="31" viewBox="0 0 63 31" fill="none" xmlns="http://www.w3.org/2000/svg">
<path d="M47.437 0.3125C42.3283 0.3125 38.2545 2.87875 35.737 5.0325L35.6483 5.10875L34.2145 6.6675L37.3795 11.8687L39.722 9.52C42.1733 7.45 44.9095 6.3125 47.437 6.3125C52.537 6.3125 56.687 10.35 56.687 15.3125C56.687 20.275 52.537 24.3125 47.437 24.3125C39.687 24.3125 34.4195 14.0688 34.367 13.965C34.062 13.3488 27.382 0.3125 15.937 0.3125C7.52826 0.3125 0.687012 7.04125 0.687012 15.3125C0.687012 23.5837 7.52826 30.3125 15.937 30.3125C20.0558 30.3125 24.1095 28.6737 27.6608 25.5725L27.737 25.505L29.1595 23.9575L25.9933 18.7562L23.6395 21.1162C21.187 23.2375 18.5945 24.3125 15.937 24.3125C10.837 24.3125 6.68701 20.275 6.68701 15.3125C6.68701 10.35 10.837 6.3125 15.937 6.3125C23.687 6.3125 28.9545 16.5562 29.007 16.66C29.312 17.2762 35.992 30.3125 47.437 30.3125C55.8458 30.3125 62.687 23.5837 62.687 15.3125C62.687 7.04125 55.8458 0.3125 47.437 0.3125Z" fill="#003049"/>
</svg>
