<svg id="Layer_1" data-name="Layer 1" xmlns="http://www.w3.org/2000/svg" xmlns:xlink="http://www.w3.org/1999/xlink" viewBox="0 0 1454.67 331"><defs><style>.cls-1{fill:#fff;}.cls-2{fill:#1a1a1a;}.cls-3{fill:url(#linear-gradient);}.cls-4{fill:url(#linear-gradient-2);}.cls-5{fill:url(#linear-gradient-3);}.cls-6{fill:url(#linear-gradient-4);}.cls-7{fill:url(#linear-gradient-5);}.cls-8{fill:url(#linear-gradient-6);}.cls-9{fill:url(#linear-gradient-7);}.cls-10{fill:url(#linear-gradient-8);}.cls-11{fill:url(#linear-gradient-9);}.cls-12{fill:url(#linear-gradient-10);}.cls-13{fill:url(#linear-gradient-11);}.cls-14{fill:url(#linear-gradient-12);}.cls-15{fill:url(#linear-gradient-13);}.cls-16{fill:url(#linear-gradient-14);}.cls-17{fill:url(#linear-gradient-15);}.cls-18{fill:url(#linear-gradient-16);}.cls-19{fill:url(#linear-gradient-17);}.cls-20{fill:url(#linear-gradient-18);}.cls-21{fill:url(#linear-gradient-19);}.cls-22{fill:url(#linear-gradient-20);}.cls-23{fill:url(#linear-gradient-21);}.cls-24{fill:url(#linear-gradient-22);}.cls-25{fill:url(#linear-gradient-23);}.cls-26{fill:url(#linear-gradient-24);}.cls-27{fill:url(#linear-gradient-25);}.cls-28{fill:url(#linear-gradient-26);}.cls-29{fill:url(#linear-gradient-27);}.cls-30{fill:url(#linear-gradient-28);}.cls-31{fill:url(#linear-gradient-29);}.cls-32{fill:url(#linear-gradient-30);}.cls-33{fill:url(#linear-gradient-31);}.cls-34{fill:url(#linear-gradient-32);}.cls-35{fill:url(#linear-gradient-33);}.cls-36{fill:url(#linear-gradient-34);}.cls-37{fill:url(#linear-gradient-35);}.cls-38{fill:url(#linear-gradient-36);}.cls-39{fill:url(#linear-gradient-37);}.cls-40{fill:url(#linear-gradient-38);}.cls-41{fill:url(#linear-gradient-39);}.cls-42{fill:url(#linear-gradient-40);}.cls-43{fill:url(#linear-gradient-41);}.cls-44{fill:url(#linear-gradient-42);}.cls-45{fill:url(#linear-gradient-43);}.cls-46{fill:url(#linear-gradient-44);}.cls-47{fill:url(#linear-gradient-45);}.cls-48{fill:url(#linear-gradient-46);}.cls-49{fill:url(#linear-gradient-47);}.cls-50{fill:url(#linear-gradient-48);}.cls-51{fill:url(#linear-gradient-49);}.cls-52{fill:url(#linear-gradient-50);}.cls-53{fill:url(#linear-gradient-51);}.cls-54{fill:url(#linear-gradient-52);}</style><linearGradient id="linear-gradient" x1="22.82" y1="262.27" x2="242.32" y2="42.77" gradientUnits="userSpaceOnUse"><stop offset="0" stop-color="#053854"/><stop offset="0.36" stop-color="#034369"/><stop offset="0.99" stop-color="#005b97"/></linearGradient><linearGradient id="linear-gradient-2" x1="23.73" y1="263.18" x2="243.14" y2="43.78" gradientUnits="userSpaceOnUse"><stop offset="0" stop-color="#053854"/><stop offset="0.37" stop-color="#04446a"/><stop offset="0.7" stop-color="#025182"/><stop offset="0.99" stop-color="#015c98"/><stop offset="1" stop-color="#015c98"/></linearGradient><linearGradient id="linear-gradient-3" x1="24.65" y1="264.09" x2="243.96" y2="44.79" gradientUnits="userSpaceOnUse"><stop offset="0" stop-color="#053854"/><stop offset="0.38" stop-color="#03456c"/><stop offset="0.7" stop-color="#025183"/><stop offset="0.99" stop-color="#015e99"/><stop offset="1" stop-color="#015e9a"/></linearGradient><linearGradient id="linear-gradient-4" x1="25.57" y1="265" x2="244.77" y2="45.79" gradientUnits="userSpaceOnUse"><stop offset="0" stop-color="#053854"/><stop offset="0.39" stop-color="#03466d"/><stop offset="0.7" stop-color="#025284"/><stop offset="0.99" stop-color="#025f9b"/><stop offset="1" stop-color="#025f9b"/></linearGradient><linearGradient id="linear-gradient-5" x1="26.49" y1="265.91" x2="245.59" y2="46.8" gradientUnits="userSpaceOnUse"><stop offset="0" stop-color="#053854"/><stop offset="0.41" stop-color="#03466f"/><stop offset="0.7" stop-color="#025285"/><stop offset="0.99" stop-color="#02609c"/><stop offset="1" stop-color="#02609c"/></linearGradient><linearGradient id="linear-gradient-6" x1="27.4" y1="266.82" x2="246.41" y2="47.81" gradientUnits="userSpaceOnUse"><stop offset="0" stop-color="#053854"/><stop offset="0.43" stop-color="#034871"/><stop offset="0.7" stop-color="#025386"/><stop offset="0.99" stop-color="#03619d"/><stop offset="1" stop-color="#03619d"/></linearGradient><linearGradient id="linear-gradient-7" x1="28.32" y1="267.72" x2="247.23" y2="48.81" gradientUnits="userSpaceOnUse"><stop offset="0" stop-color="#053854"/><stop offset="0.45" stop-color="#034973"/><stop offset="0.7" stop-color="#025387"/><stop offset="0.99" stop-color="#03639e"/><stop offset="1" stop-color="#04639f"/></linearGradient><linearGradient id="linear-gradient-8" x1="29.24" y1="268.63" x2="248.05" y2="49.82" gradientUnits="userSpaceOnUse"><stop offset="0" stop-color="#053854"/><stop offset="0.48" stop-color="#034a76"/><stop offset="0.7" stop-color="#025488"/><stop offset="0.99" stop-color="#0464a0"/><stop offset="1" stop-color="#0464a0"/></linearGradient><linearGradient id="linear-gradient-9" x1="30.15" y1="269.54" x2="248.87" y2="50.83" gradientUnits="userSpaceOnUse"><stop offset="0" stop-color="#053854"/><stop offset="0.51" stop-color="#034d7a"/><stop offset="0.7" stop-color="#025589"/><stop offset="0.99" stop-color="#0565a1"/><stop offset="1" stop-color="#0565a1"/></linearGradient><linearGradient id="linear-gradient-10" x1="31.07" y1="270.45" x2="249.69" y2="51.83" gradientUnits="userSpaceOnUse"><stop offset="0" stop-color="#053854"/><stop offset="0.55" stop-color="#034e7e"/><stop offset="0.7" stop-color="#02558a"/><stop offset="0.99" stop-color="#0566a2"/><stop offset="1" stop-color="#0566a2"/></linearGradient><linearGradient id="linear-gradient-11" x1="31.99" y1="271.36" x2="250.51" y2="52.84" gradientUnits="userSpaceOnUse"><stop offset="0" stop-color="#053854"/><stop offset="0.61" stop-color="#025283"/><stop offset="0.7" stop-color="#02568b"/><stop offset="0.99" stop-color="#0668a3"/><stop offset="1" stop-color="#0668a4"/></linearGradient><linearGradient id="linear-gradient-12" x1="32.91" y1="272.26" x2="251.32" y2="53.85" gradientUnits="userSpaceOnUse"><stop offset="0" stop-color="#053854"/><stop offset="0.67" stop-color="#02558a"/><stop offset="0.7" stop-color="#02568c"/><stop offset="0.99" stop-color="#0669a5"/><stop offset="1" stop-color="#0669a5"/></linearGradient><linearGradient id="linear-gradient-13" x1="33.82" y1="273.17" x2="252.14" y2="54.85" gradientUnits="userSpaceOnUse"><stop offset="0" stop-color="#053854"/><stop offset="0.7" stop-color="#02578d"/><stop offset="0.99" stop-color="#076aa6"/><stop offset="1" stop-color="#076aa6"/></linearGradient><linearGradient id="linear-gradient-14" x1="34.74" y1="274.08" x2="252.96" y2="55.86" gradientUnits="userSpaceOnUse"><stop offset="0" stop-color="#053854"/><stop offset="0.7" stop-color="#01578f"/><stop offset="0.99" stop-color="#076ba7"/><stop offset="1" stop-color="#086ca7"/></linearGradient><linearGradient id="linear-gradient-15" x1="35.66" y1="274.99" x2="253.78" y2="56.87" gradientUnits="userSpaceOnUse"><stop offset="0" stop-color="#053854"/><stop offset="0.7" stop-color="#015890"/><stop offset="0.99" stop-color="#086da8"/><stop offset="1" stop-color="#086da9"/></linearGradient><linearGradient id="linear-gradient-16" x1="36.58" y1="275.9" x2="254.6" y2="57.87" gradientUnits="userSpaceOnUse"><stop offset="0" stop-color="#053854"/><stop offset="0.7" stop-color="#015991"/><stop offset="0.99" stop-color="#096eaa"/><stop offset="1" stop-color="#096eaa"/></linearGradient><linearGradient id="linear-gradient-17" x1="37.49" y1="276.81" x2="255.42" y2="58.88" gradientUnits="userSpaceOnUse"><stop offset="0" stop-color="#053854"/><stop offset="0.7" stop-color="#015992"/><stop offset="0.99" stop-color="#096fab"/><stop offset="1" stop-color="#096fab"/></linearGradient><linearGradient id="linear-gradient-18" x1="38.41" y1="277.71" x2="256.24" y2="59.89" gradientUnits="userSpaceOnUse"><stop offset="0" stop-color="#053854"/><stop offset="0.7" stop-color="#015a93"/><stop offset="0.99" stop-color="#0a70ac"/><stop offset="1" stop-color="#0a71ac"/></linearGradient><linearGradient id="linear-gradient-19" x1="39.33" y1="278.62" x2="257.06" y2="60.89" gradientUnits="userSpaceOnUse"><stop offset="0" stop-color="#053854"/><stop offset="0.7" stop-color="#015a94"/><stop offset="0.99" stop-color="#0a72ad"/><stop offset="1" stop-color="#0b72ae"/></linearGradient><linearGradient id="linear-gradient-20" x1="40.25" y1="279.53" x2="257.88" y2="61.9" gradientUnits="userSpaceOnUse"><stop offset="0" stop-color="#053854"/><stop offset="0.7" stop-color="#015b95"/><stop offset="0.99" stop-color="#0b73ae"/><stop offset="1" stop-color="#0b73af"/></linearGradient><linearGradient id="linear-gradient-21" x1="41.16" y1="280.44" x2="258.69" y2="62.91" gradientUnits="userSpaceOnUse"><stop offset="0" stop-color="#053854"/><stop offset="0.7" stop-color="#015b96"/><stop offset="0.99" stop-color="#0b74b0"/><stop offset="1" stop-color="#0c74b0"/></linearGradient><linearGradient id="linear-gradient-22" x1="42.08" y1="281.35" x2="259.51" y2="63.91" gradientUnits="userSpaceOnUse"><stop offset="0" stop-color="#053854"/><stop offset="0.7" stop-color="#015c97"/><stop offset="0.99" stop-color="#0c75b1"/><stop offset="1" stop-color="#0c76b1"/></linearGradient><linearGradient id="linear-gradient-23" x1="43" y1="282.26" x2="260.33" y2="64.92" gradientUnits="userSpaceOnUse"><stop offset="0" stop-color="#053854"/><stop offset="0.7" stop-color="#015d98"/><stop offset="0.99" stop-color="#0d77b2"/><stop offset="1" stop-color="#0d77b3"/></linearGradient><linearGradient id="linear-gradient-24" x1="43.91" y1="283.16" x2="261.15" y2="65.93" gradientUnits="userSpaceOnUse"><stop offset="0" stop-color="#053854"/><stop offset="0.7" stop-color="#015d99"/><stop offset="0.99" stop-color="#0d78b3"/><stop offset="1" stop-color="#0e78b4"/></linearGradient><linearGradient id="linear-gradient-25" x1="44.83" y1="284.07" x2="261.97" y2="66.94" gradientUnits="userSpaceOnUse"><stop offset="0" stop-color="#053854"/><stop offset="0.04" stop-color="#053a58"/><stop offset="0.7" stop-color="#015e9a"/><stop offset="0.99" stop-color="#0e79b5"/><stop offset="1" stop-color="#0e7ab5"/></linearGradient><linearGradient id="linear-gradient-26" x1="45.75" y1="284.98" x2="262.79" y2="67.94" gradientUnits="userSpaceOnUse"><stop offset="0" stop-color="#053854"/><stop offset="0.14" stop-color="#044063"/><stop offset="0.7" stop-color="#015e9b"/><stop offset="0.99" stop-color="#0e7ab6"/><stop offset="1" stop-color="#0f7bb6"/></linearGradient><linearGradient id="linear-gradient-27" x1="46.67" y1="285.89" x2="263.61" y2="68.95" gradientUnits="userSpaceOnUse"><stop offset="0" stop-color="#053854"/><stop offset="0.21" stop-color="#04446b"/><stop offset="0.7" stop-color="#015f9c"/><stop offset="0.99" stop-color="#0f7cb7"/><stop offset="1" stop-color="#0f7cb8"/></linearGradient><linearGradient id="linear-gradient-28" x1="47.58" y1="286.8" x2="264.43" y2="69.96" gradientUnits="userSpaceOnUse"><stop offset="0" stop-color="#053854"/><stop offset="0.27" stop-color="#034872"/><stop offset="0.7" stop-color="#015f9d"/><stop offset="0.99" stop-color="#0f7db8"/><stop offset="1" stop-color="#107db9"/></linearGradient><linearGradient id="linear-gradient-29" x1="48.5" y1="287.7" x2="265.24" y2="70.96" gradientUnits="userSpaceOnUse"><stop offset="0" stop-color="#053854"/><stop offset="0.32" stop-color="#034b77"/><stop offset="0.7" stop-color="#01609e"/><stop offset="0.99" stop-color="#107eba"/><stop offset="1" stop-color="#107fba"/></linearGradient><linearGradient id="linear-gradient-30" x1="49.42" y1="288.61" x2="266.06" y2="71.97" gradientUnits="userSpaceOnUse"><stop offset="0" stop-color="#053854"/><stop offset="0.35" stop-color="#034d7c"/><stop offset="0.7" stop-color="#01609f"/><stop offset="0.99" stop-color="#107fbb"/><stop offset="1" stop-color="#1180bb"/></linearGradient><linearGradient id="linear-gradient-31" x1="50.34" y1="289.52" x2="266.88" y2="72.98" gradientUnits="userSpaceOnUse"><stop offset="0" stop-color="#053854"/><stop offset="0.38" stop-color="#035080"/><stop offset="0.7" stop-color="#0161a0"/><stop offset="0.99" stop-color="#1181bc"/><stop offset="1" stop-color="#1281bd"/></linearGradient><linearGradient id="linear-gradient-32" x1="51.25" y1="290.43" x2="267.7" y2="73.98" gradientUnits="userSpaceOnUse"><stop offset="0" stop-color="#053854"/><stop offset="0.41" stop-color="#035283"/><stop offset="0.7" stop-color="#0162a1"/><stop offset="0.99" stop-color="#1282bd"/><stop offset="1" stop-color="#1283be"/></linearGradient><linearGradient id="linear-gradient-33" x1="52.17" y1="291.34" x2="268.52" y2="74.99" gradientUnits="userSpaceOnUse"><stop offset="0" stop-color="#053854"/><stop offset="0.43" stop-color="#025386"/><stop offset="0.7" stop-color="#0162a2"/><stop offset="0.99" stop-color="#1283bf"/><stop offset="1" stop-color="#1384bf"/></linearGradient><linearGradient id="linear-gradient-34" x1="53.09" y1="292.25" x2="269.34" y2="76" gradientUnits="userSpaceOnUse"><stop offset="0" stop-color="#053854"/><stop offset="0.45" stop-color="#025589"/><stop offset="0.7" stop-color="#0163a3"/><stop offset="0.99" stop-color="#1384c0"/><stop offset="1" stop-color="#1385c0"/></linearGradient><linearGradient id="linear-gradient-35" x1="54.01" y1="293.15" x2="270.16" y2="77" gradientUnits="userSpaceOnUse"><stop offset="0" stop-color="#053854"/><stop offset="0.46" stop-color="#02568c"/><stop offset="0.7" stop-color="#0163a4"/><stop offset="0.99" stop-color="#1386c1"/><stop offset="1" stop-color="#1486c2"/></linearGradient><linearGradient id="linear-gradient-36" x1="54.92" y1="294.06" x2="270.98" y2="78.01" gradientUnits="userSpaceOnUse"><stop offset="0" stop-color="#053854"/><stop offset="0" stop-color="#053854"/><stop offset="0.47" stop-color="#02588e"/><stop offset="0.7" stop-color="#0164a5"/><stop offset="0.99" stop-color="#1487c2"/><stop offset="1" stop-color="#1588c3"/></linearGradient><linearGradient id="linear-gradient-37" x1="55.84" y1="294.97" x2="271.79" y2="79.02" gradientUnits="userSpaceOnUse"><stop offset="0" stop-color="#053854"/><stop offset="0.04" stop-color="#053b5a"/><stop offset="0.49" stop-color="#025991"/><stop offset="0.7" stop-color="#0164a6"/><stop offset="0.99" stop-color="#1488c3"/><stop offset="1" stop-color="#1589c4"/></linearGradient><linearGradient id="linear-gradient-38" x1="56.76" y1="295.88" x2="272.61" y2="80.02" gradientUnits="userSpaceOnUse"><stop offset="0" stop-color="#053854"/><stop offset="0.08" stop-color="#043e5f"/><stop offset="0.5" stop-color="#025a93"/><stop offset="0.7" stop-color="#0165a7"/><stop offset="0.99" stop-color="#1589c5"/><stop offset="1" stop-color="#168ac5"/></linearGradient><linearGradient id="linear-gradient-39" x1="57.68" y1="296.79" x2="273.43" y2="81.03" gradientUnits="userSpaceOnUse"><stop offset="0" stop-color="#053854"/><stop offset="0.11" stop-color="#044063"/><stop offset="0.51" stop-color="#025c95"/><stop offset="0.7" stop-color="#0166a8"/><stop offset="0.99" stop-color="#168bc6"/><stop offset="1" stop-color="#168bc7"/></linearGradient><linearGradient id="linear-gradient-40" x1="58.59" y1="297.69" x2="274.25" y2="82.04" gradientUnits="userSpaceOnUse"><stop offset="0" stop-color="#053854"/><stop offset="0.15" stop-color="#044369"/><stop offset="0.52" stop-color="#015c98"/><stop offset="0.7" stop-color="#06a"/><stop offset="0.99" stop-color="#168cc7"/><stop offset="1" stop-color="#178dc8"/></linearGradient><linearGradient id="linear-gradient-41" x1="59.51" y1="298.6" x2="275.07" y2="83.04" gradientUnits="userSpaceOnUse"><stop offset="0" stop-color="#053854"/><stop offset="0.17" stop-color="#04456d"/><stop offset="0.52" stop-color="#015e9a"/><stop offset="0.7" stop-color="#0067ab"/><stop offset="0.99" stop-color="#178dc8"/><stop offset="1" stop-color="#188ec9"/></linearGradient><linearGradient id="linear-gradient-42" x1="60.43" y1="299.51" x2="275.89" y2="84.05" gradientUnits="userSpaceOnUse"><stop offset="0" stop-color="#053854"/><stop offset="0.2" stop-color="#034770"/><stop offset="0.53" stop-color="#015e9b"/><stop offset="0.7" stop-color="#0067ac"/><stop offset="0.99" stop-color="#178eca"/><stop offset="1" stop-color="#188fca"/></linearGradient><linearGradient id="linear-gradient-43" x1="61.34" y1="300.42" x2="276.71" y2="85.06" gradientUnits="userSpaceOnUse"><stop offset="0" stop-color="#053854"/><stop offset="0.22" stop-color="#034974"/><stop offset="0.54" stop-color="#015f9d"/><stop offset="0.7" stop-color="#0068ad"/><stop offset="0.99" stop-color="#1890cb"/><stop offset="1" stop-color="#1991cc"/></linearGradient><linearGradient id="linear-gradient-44" x1="62.26" y1="301.33" x2="277.53" y2="86.06" gradientUnits="userSpaceOnUse"><stop offset="0" stop-color="#053854"/><stop offset="0.24" stop-color="#034b77"/><stop offset="0.54" stop-color="#01609f"/><stop offset="0.7" stop-color="#0068ae"/><stop offset="0.99" stop-color="#1891cc"/><stop offset="1" stop-color="#1992cd"/></linearGradient><linearGradient id="linear-gradient-45" x1="63.18" y1="302.24" x2="278.34" y2="87.07" gradientUnits="userSpaceOnUse"><stop offset="0" stop-color="#053854"/><stop offset="0.26" stop-color="#034d7a"/><stop offset="0.55" stop-color="#0161a0"/><stop offset="0.7" stop-color="#0069af"/><stop offset="0.99" stop-color="#1992cd"/><stop offset="1" stop-color="#1a93ce"/></linearGradient><linearGradient id="linear-gradient-46" x1="64.1" y1="303.14" x2="279.16" y2="88.08" gradientUnits="userSpaceOnUse"><stop offset="0" stop-color="#053854"/><stop offset="0.27" stop-color="#034e7d"/><stop offset="0.55" stop-color="#0162a2"/><stop offset="0.7" stop-color="#006ab0"/><stop offset="0.99" stop-color="#1a93cf"/><stop offset="1" stop-color="#1a94cf"/></linearGradient><linearGradient id="linear-gradient-47" x1="65.01" y1="304.05" x2="279.98" y2="89.08" gradientUnits="userSpaceOnUse"><stop offset="0" stop-color="#053854"/><stop offset="0.28" stop-color="#035080"/><stop offset="0.56" stop-color="#0163a3"/><stop offset="0.7" stop-color="#006ab1"/><stop offset="0.99" stop-color="#1a95d0"/><stop offset="1" stop-color="#1b96d1"/></linearGradient><linearGradient id="linear-gradient-48" x1="65.93" y1="304.96" x2="280.8" y2="90.09" gradientUnits="userSpaceOnUse"><stop offset="0" stop-color="#053854"/><stop offset="0.3" stop-color="#035183"/><stop offset="0.56" stop-color="#0164a5"/><stop offset="0.7" stop-color="#006bb2"/><stop offset="0.99" stop-color="#1b96d1"/><stop offset="1" stop-color="#1c97d2"/></linearGradient><linearGradient id="linear-gradient-49" x1="66.85" y1="305.87" x2="281.62" y2="91.1" gradientUnits="userSpaceOnUse"><stop offset="0" stop-color="#053854"/><stop offset="0.31" stop-color="#025285"/><stop offset="0.56" stop-color="#0164a6"/><stop offset="0.7" stop-color="#006bb3"/><stop offset="0.99" stop-color="#1b97d2"/><stop offset="1" stop-color="#1c98d3"/></linearGradient><linearGradient id="linear-gradient-50" x1="67.77" y1="306.78" x2="282.44" y2="92.11" gradientUnits="userSpaceOnUse"><stop offset="0" stop-color="#053854"/><stop offset="0.32" stop-color="#025488"/><stop offset="0.57" stop-color="#0165a8"/><stop offset="0.7" stop-color="#006cb4"/><stop offset="0.99" stop-color="#1c98d4"/><stop offset="1" stop-color="#1d99d4"/></linearGradient><linearGradient id="linear-gradient-51" x1="68.68" y1="307.69" x2="283.26" y2="93.11" gradientUnits="userSpaceOnUse"><stop offset="0" stop-color="#053854"/><stop offset="0.02" stop-color="#053a58"/><stop offset="0.33" stop-color="#02558a"/><stop offset="0.57" stop-color="#0166a9"/><stop offset="0.7" stop-color="#006cb5"/><stop offset="0.99" stop-color="#1c9ad5"/><stop offset="1" stop-color="#1d9bd6"/></linearGradient><linearGradient id="linear-gradient-52" x1="69.6" y1="308.59" x2="284.08" y2="94.12" gradientUnits="userSpaceOnUse"><stop offset="0" stop-color="#053854"/><stop offset="0.04" stop-color="#053c5b"/><stop offset="0.34" stop-color="#02568c"/><stop offset="0.57" stop-color="#0167ab"/><stop offset="0.7" stop-color="#006db6"/><stop offset="1" stop-color="#1e9cd7"/></linearGradient></defs><rect class="cls-1" width="1454.67" height="331"/><path class="cls-2" d="M591.14,134.08a31.42,31.42,0,0,0-12.07-12.81q-7.76-4.55-20.56-4.55-11.58,0-19,3.45a28,28,0,0,0-11.82,10.22,48.46,48.46,0,0,0-6.52,16.49q-.29,1.32-.54,2.67a55.16,55.16,0,0,0-5.13-15.47,31.33,31.33,0,0,0-12.06-12.81q-7.75-4.55-20.56-4.55-11.58,0-19.09,3.45a27.89,27.89,0,0,0-11.94,10.22A42.35,42.35,0,0,0,447,141.12V119.18h-19.7V242.3H447V190.84q0-17.73,2.09-28.94t5.79-17.6q3.69-6.41,9.11-8.87A30.07,30.07,0,0,1,476.52,133q10.34,0,15.88,3.33a18.31,18.31,0,0,1,7.88,9.72,48.17,48.17,0,0,1,2.46,15.64q.12,9.22.12,20.56V242.3h19.95V190.84q0-17.73,1.84-28.94t5.67-17.6a21,21,0,0,1,9.35-8.87A30.36,30.36,0,0,1,552.11,133q10.33,0,15.88,3.33a18.27,18.27,0,0,1,7.88,9.72,49.88,49.88,0,0,1,2.59,15.64q.24,9.22.24,20.56V242.3h19.7V178.77a194.46,194.46,0,0,0-1.48-25.12A58.36,58.36,0,0,0,591.14,134.08Z"/><path class="cls-2" d="M722,170.15a75.2,75.2,0,0,0-3-21.67,45.65,45.65,0,0,0-9-16.86,41,41,0,0,0-15.26-11q-9.24-3.93-22.29-3.94a57.48,57.48,0,0,0-22.65,4.19,49.85,49.85,0,0,0-16.37,10.83,47.37,47.37,0,0,0-10,14.77,40.77,40.77,0,0,0-3.44,16h19.7a21.35,21.35,0,0,1,2.7-10.84,28.28,28.28,0,0,1,7.14-8.12,32.61,32.61,0,0,1,10.22-5.29,38.81,38.81,0,0,1,11.95-1.85q14.78,0,22.65,7.76t7.87,22l-3.19.23q-6.17.24-13.05.74l-13.55,1a142.14,142.14,0,0,0-21.3,2.59,67.17,67.17,0,0,0-18.71,6.52,36,36,0,0,0-13.17,11.82q-4.94,7.39-4.93,18.47,0,16.74,9.48,27t28.2,10.22q18.21,0,29.79-5.17t18.22-13.67c.86-1.09,1.65-2.22,2.4-3.36.08,1.6.18,3.1.31,4.47a20.09,20.09,0,0,0,2.59,8.62,12.13,12.13,0,0,0,6.15,5q4.07,1.61,11.21,1.6h7.14V222.6H722Zm-27.58,43.71a32,32,0,0,1-12.68,9.85q-8.25,3.81-21.55,3.81-12.56,0-19.33-4.3t-6.77-15.64a16.47,16.47,0,0,1,3.08-10.22,22.65,22.65,0,0,1,8.49-6.65A45.27,45.27,0,0,1,658.11,187q7-1.11,14.9-1.6c3.61-.33,7.71-.65,12.31-1s8.9-.61,12.93-.86l4.06-.24v2.33a64.84,64.84,0,0,1-1.73,14.78A36.49,36.49,0,0,1,694.43,213.86Z"/><path class="cls-2" d="M826.41,122.14a27.17,27.17,0,0,0-12.31,9.23A37.07,37.07,0,0,0,808,145.48l-2-26.3H752.54v19.21H789v84.7H752.54V242.3h116V223.09H808.68V185.66a237.28,237.28,0,0,1,1-24.25q1-9.22,4.55-14.28t10.71-6.65q7.14-1.59,19.7-1.6h23.88v-19.7H845.86Q834,119.18,826.41,122.14Z"/><path class="cls-2" d="M1046.91,134.08a31.42,31.42,0,0,0-12.07-12.81q-7.75-4.55-20.56-4.55-11.58,0-19,3.45a28,28,0,0,0-11.82,10.22A48.46,48.46,0,0,0,977,146.88q-.29,1.32-.54,2.67a55.16,55.16,0,0,0-5.13-15.47,31.33,31.33,0,0,0-12.06-12.81q-7.75-4.55-20.56-4.55-11.58,0-19.08,3.45a27.86,27.86,0,0,0-12,10.22,42.7,42.7,0,0,0-4.92,10.73V119.18H883V242.3h19.7V190.84q0-17.73,2.09-28.94t5.79-17.6q3.69-6.41,9.11-8.87A30.07,30.07,0,0,1,932.29,133q10.34,0,15.88,3.33a18.27,18.27,0,0,1,7.88,9.72,47.64,47.64,0,0,1,2.46,15.64q.12,9.22.12,20.56V242.3h20V190.84q0-17.73,1.84-28.94t5.67-17.6a21,21,0,0,1,9.36-8.87,30.28,30.28,0,0,1,12.43-2.46q10.33,0,15.88,3.33a18.22,18.22,0,0,1,7.88,9.72,49.88,49.88,0,0,1,2.59,15.64q.24,9.22.24,20.56V242.3h19.7V178.77a194.46,194.46,0,0,0-1.48-25.12A58.36,58.36,0,0,0,1046.91,134.08Z"/><path class="cls-2" d="M1127.79,116.72q-26.83,0-42.23,17.11t-15.39,46.91q0,30,15.39,47t42.23,17q22.41,0,36.82-11.7t19.08-32.87H1164q-3.21,13.55-12.31,20.32t-23.89,6.77q-19,0-28.56-11.7-8.51-10.35-9.47-29.67h95.65l.25-5.17q0-29.79-15.39-46.91T1127.79,116.72Zm0,17.48q19.45,0,28.94,11.7,6.93,8.57,8.79,23.27h-75.18q1.89-14.52,8.89-23.15Q1108.83,134.2,1127.79,134.2Z"/><path class="cls-2" d="M1273.56,100.72q0-19.95-8.49-29.06t-26.47-9.11h-37.92v19.7h44.07a38.33,38.33,0,0,1,4.93.24,4.31,4.31,0,0,1,2.7,1.36,5.42,5.42,0,0,1,1.24,3,44.08,44.08,0,0,1,.24,5.3v131h-48V242.3h115.73V223.09h-48Z"/><path class="cls-2" d="M1444.2,222.6V170.15a75.2,75.2,0,0,0-3-21.67,45.64,45.64,0,0,0-9-16.86,41,41,0,0,0-15.27-11q-9.24-3.93-22.28-3.94a57.53,57.53,0,0,0-22.66,4.19,50.06,50.06,0,0,0-16.37,10.83,47.34,47.34,0,0,0-10,14.77,40.79,40.79,0,0,0-3.45,16H1362a21.25,21.25,0,0,1,2.71-10.84,28,28,0,0,1,7.14-8.12,32.55,32.55,0,0,1,10.21-5.29,38.81,38.81,0,0,1,12-1.85q14.77,0,22.65,7.76t7.88,22l-3.2.23q-6.16.24-13,.74l-13.54,1a141.82,141.82,0,0,0-21.3,2.59,67.12,67.12,0,0,0-18.72,6.52,36,36,0,0,0-13.17,11.82q-4.93,7.39-4.93,18.47,0,16.74,9.49,27t28.19,10.22q18.23,0,29.79-5.17t18.22-13.67c.86-1.09,1.65-2.22,2.4-3.36.08,1.6.18,3.1.31,4.47a20.09,20.09,0,0,0,2.59,8.62,12.17,12.17,0,0,0,6.15,5q4.07,1.61,11.21,1.6h7.14V222.6Zm-27.58-8.74a32,32,0,0,1-12.68,9.85q-8.25,3.81-21.55,3.81-12.56,0-19.33-4.3t-6.77-15.64a16.47,16.47,0,0,1,3.08-10.22,22.61,22.61,0,0,1,8.5-6.65A45.2,45.2,0,0,1,1380.3,187q7-1.11,14.9-1.6c3.61-.33,7.71-.65,12.31-1s8.9-.61,12.93-.86l4.06-.24v2.33a65.39,65.39,0,0,1-1.72,14.78A36.35,36.35,0,0,1,1416.62,213.86Z"/><rect class="cls-3" x="6.09" y="9.44" width="269.56" height="269.56" rx="6.39"/><rect class="cls-4" x="7.01" y="10.35" width="269.56" height="269.56" rx="6.39"/><rect class="cls-5" x="7.93" y="11.26" width="269.56" height="269.56" rx="6.39"/><rect class="cls-6" x="8.84" y="12.17" width="269.56" height="269.56" rx="6.39"/><rect class="cls-7" x="9.76" y="13.07" width="269.56" height="269.56" rx="6.39"/><rect class="cls-8" x="10.68" y="13.98" width="269.56" height="269.56" rx="6.39"/><rect class="cls-9" x="11.6" y="14.89" width="269.56" height="269.56" rx="6.39"/><rect class="cls-10" x="12.51" y="15.8" width="269.56" height="269.56" rx="6.39"/><rect class="cls-11" x="13.43" y="16.71" width="269.56" height="269.56" rx="6.39"/><rect class="cls-12" x="14.35" y="17.62" width="269.56" height="269.56" rx="6.39"/><rect class="cls-13" x="15.27" y="18.52" width="269.56" height="269.56" rx="6.39"/><rect class="cls-14" x="16.18" y="19.43" width="269.56" height="269.56" rx="6.39"/><rect class="cls-15" x="17.1" y="20.34" width="269.56" height="269.56" rx="6.39"/><rect class="cls-16" x="18.02" y="21.25" width="269.56" height="269.56" rx="6.39"/><rect class="cls-17" x="18.94" y="22.16" width="269.56" height="269.56" rx="6.39"/><rect class="cls-18" x="19.85" y="23.06" width="269.56" height="269.56" rx="6.39"/><rect class="cls-19" x="20.77" y="23.97" width="269.56" height="269.56" rx="6.39"/><rect class="cls-20" x="21.69" y="24.88" width="269.56" height="269.56" rx="6.39"/><rect class="cls-21" x="22.6" y="25.79" width="269.56" height="269.56" rx="6.4"/><rect class="cls-22" x="23.52" y="26.7" width="269.56" height="269.56" rx="6.4"/><rect class="cls-23" x="24.44" y="27.61" width="269.56" height="269.56" rx="6.4"/><rect class="cls-24" x="25.36" y="28.51" width="269.56" height="269.56" rx="6.4"/><rect class="cls-25" x="26.27" y="29.42" width="269.56" height="269.56" rx="6.4"/><rect class="cls-26" x="27.19" y="30.33" width="269.56" height="269.56" rx="6.4"/><rect class="cls-27" x="28.11" y="31.24" width="269.56" height="269.56" rx="6.4"/><rect class="cls-28" x="29.03" y="32.15" width="269.56" height="269.56" rx="6.4"/><rect class="cls-29" x="29.94" y="33.06" width="269.56" height="269.56" rx="6.4"/><rect class="cls-30" x="30.86" y="33.96" width="269.56" height="269.56" rx="6.4"/><rect class="cls-31" x="31.78" y="34.87" width="269.56" height="269.56" rx="6.4"/><rect class="cls-32" x="32.7" y="35.78" width="269.56" height="269.56" rx="6.4"/><rect class="cls-33" x="33.61" y="36.69" width="269.56" height="269.56" rx="6.4"/><rect class="cls-34" x="34.53" y="37.6" width="269.56" height="269.56" rx="6.4"/><rect class="cls-35" x="35.45" y="38.5" width="269.56" height="269.56" rx="6.4"/><rect class="cls-36" x="36.36" y="39.41" width="269.56" height="269.56" rx="6.4"/><rect class="cls-37" x="37.28" y="40.32" width="269.56" height="269.56" rx="6.4"/><rect class="cls-38" x="38.2" y="41.23" width="269.56" height="269.56" rx="6.4"/><rect class="cls-39" x="39.12" y="42.14" width="269.56" height="269.56" rx="6.4"/><rect class="cls-40" x="40.03" y="43.05" width="269.56" height="269.56" rx="6.4"/><rect class="cls-41" x="40.95" y="43.95" width="269.56" height="269.56" rx="6.4"/><rect class="cls-42" x="41.87" y="44.86" width="269.56" height="269.56" rx="6.4"/><rect class="cls-43" x="42.79" y="45.77" width="269.56" height="269.56" rx="6.4"/><rect class="cls-44" x="43.7" y="46.68" width="269.56" height="269.56" rx="6.4"/><rect class="cls-45" x="44.62" y="47.59" width="269.56" height="269.56" rx="6.4"/><rect class="cls-46" x="45.54" y="48.5" width="269.56" height="269.56" rx="6.4"/><rect class="cls-47" x="46.45" y="49.4" width="269.56" height="269.56" rx="6.4"/><rect class="cls-48" x="47.37" y="50.31" width="269.56" height="269.56" rx="6.4"/><rect class="cls-49" x="48.29" y="51.22" width="269.56" height="269.56" rx="6.4"/><rect class="cls-50" x="49.21" y="52.13" width="269.56" height="269.56" rx="6.4"/><rect class="cls-51" x="50.12" y="53.04" width="269.56" height="269.56" rx="6.4"/><rect class="cls-52" x="51.04" y="53.95" width="269.56" height="269.56" rx="6.4"/><rect class="cls-53" x="51.96" y="54.85" width="269.56" height="269.56" rx="6.4"/><rect class="cls-54" x="52.88" y="55.76" width="269.56" height="269.56" rx="6.4"/></svg>