<svg width="63" height="63" viewBox="0 0 63 63" fill="none" xmlns="http://www.w3.org/2000/svg">
<g clip-path="url(#clip0_1526_7225)">
<path d="M9.22852 38.3122C9.03415 39.1005 8.65851 39.8327 8.13151 40.4502L14.2816 52.1785C15.0184 52.1037 15.7626 52.1842 16.4664 52.4148C17.1701 52.6454 17.8177 53.021 18.3675 53.5173L54.9888 34.2529C54.9291 33.7959 54.933 33.3329 55.0002 32.877C50.4881 35.1405 23.3323 48.8629 9.22852 38.3122Z" fill="#D89450"/>
<path d="M56.1213 27.7672C54.2155 24.0117 52.3068 20.2546 50.398 16.4949C49.8219 15.3593 49.2421 14.2252 48.6694 13.0921C47.3702 13.27 46.0475 13.0608 44.8668 12.4905C43.6862 11.9202 42.7 11.0143 42.0318 9.88598C34.5075 13.7149 26.9824 17.5421 19.4563 21.3675L6.05623 28.1844C6.55061 29.3404 6.7086 30.6128 6.51202 31.855C6.31544 33.0973 5.77227 34.2589 4.94502 35.2063C6.58383 38.4404 8.22486 41.6692 9.86908 44.9081C10.7441 46.6336 11.6186 48.3548 12.4921 50.0799C13.4214 49.9962 14.3579 50.1086 15.2409 50.4098C16.1239 50.711 16.9338 51.1942 17.6182 51.8283C25.3544 47.9024 33.0754 43.9708 40.8049 40.039C45.3046 37.754 49.8045 35.4657 54.2994 33.1769C54.1848 32.1972 54.2884 31.2041 54.6028 30.2689C54.9171 29.3337 55.4345 28.4796 56.1177 27.7679" fill="#FFCD86"/>
<path d="M56.9823 27.1808L51.3963 16.0581C50.8357 14.9459 50.2744 13.8237 49.7089 12.7054C48.431 12.8744 47.1318 12.6627 45.9739 12.0967C44.816 11.5308 43.8509 10.6357 43.1993 9.52352L20.9376 20.719C16.532 22.9361 12.1301 25.1518 7.72385 27.3654C8.20544 28.5063 8.35471 29.7602 8.15441 30.9826C7.95412 32.2049 7.41243 33.3459 6.59185 34.2738C8.19389 37.4607 9.79879 40.6493 11.3954 43.8413C12.2505 45.536 13.1041 47.2367 13.9581 48.9385C14.8731 48.8608 15.7941 48.9761 16.6615 49.2769C17.5289 49.5777 18.3235 50.0572 18.9939 50.6846C26.6152 46.8532 34.2376 43.018 41.859 39.1866C46.2963 36.955 50.7344 34.7236 55.167 32.4915C55.0583 31.5283 55.1645 30.5528 55.478 29.6354C55.7915 28.7179 56.3045 27.8814 56.9801 27.186" fill="#7D1D3F"/>
<path d="M49.7037 31.5019L20.2037 46.3373C19.7723 46.5527 19.3285 46.4839 19.1685 46.165L11.4925 30.8826C11.4572 30.8078 11.4394 30.726 11.4406 30.6433C11.4417 30.5606 11.4616 30.4792 11.4989 30.4054L11.504 30.2885L11.6159 30.2265C11.6921 30.1261 11.8171 30.0274 11.9722 29.9482L41.4712 15.1166C41.906 14.9004 42.3523 14.9723 42.5087 15.2862L50.1871 30.5692C50.3446 30.885 50.1394 31.2859 49.7064 31.5042M19.7527 45.7564C19.8013 45.7466 19.8484 45.7305 19.8928 45.7085L49.3928 30.8731C49.4378 30.852 49.4795 30.8244 49.5166 30.7913L41.9353 15.6944C41.8861 15.7033 41.8387 15.72 41.7948 15.7438L12.2952 30.5777C12.2417 30.6028 12.2136 30.6248 12.1888 30.6437L12.179 30.6805L19.7543 45.7568" fill="#F4AC45"/>
<path d="M13.7786 29.0446L14.4841 28.689L22.4176 44.4347L21.7127 44.7913L13.7786 29.0446ZM38.5847 16.9561L39.2896 16.5995L47.2341 32.3416L46.5284 32.698L38.5847 16.9561Z" fill="#F4AC45"/>
</g>
<defs>
<clipPath id="clip0_1526_7225">
<rect width="50.7585" height="50.7826" fill="white" transform="matrix(0.965926 0.258819 -0.259062 0.965861 13.8 0.0371094)"/>
</clipPath>
</defs>
</svg>
